<svg width="100" height="100" viewBox="0 0 100 100" fill="none" xmlns="http://www.w3.org/2000/svg">
<g clip-path="url(#clip0_1072_2)">
<rect width="100" height="100" rx="23" fill="url(#paint0_linear_1072_2)"/>
<path d="M14.96 78V77.2L20.56 76.24V28.88C20.56 27.6 20.0533 26.3733 19.04 25.2C18.0267 23.9733 16.6667 22.96 14.96 22.16V21.36H30.24L63.84 64.64H65.04V45.2C65.04 43.12 64.8533 41.12 64.48 39.2C64.1067 37.2267 63.52 35.36 62.72 33.6C61.9733 31.84 61.0133 30.24 59.84 28.8C58.72 27.3067 57.36 26 55.76 24.88C54.2133 23.76 52.4533 22.8533 50.48 22.16V21.36H72.48V22.16L66.24 23.12V78H59.92L22.8 30.48H21.76V48.96C21.76 51.5733 21.9467 54.0533 22.32 56.4C22.6933 58.7467 23.28 60.96 24.08 63.04C24.9333 65.0667 26 66.96 27.28 68.72C28.56 70.48 30.1067 72.08 31.92 73.52C33.7867 74.9067 35.92 76.1333 38.32 77.2V78H14.96ZM83.7019 68.48C84.8219 68.48 85.8352 68.6933 86.7419 69.12C87.6485 69.5467 88.3685 70.16 88.9019 70.96C89.4885 71.76 89.7819 72.7467 89.7819 73.92C89.7819 75.04 89.4885 76 88.9019 76.8C88.3685 77.5467 87.6485 78.1333 86.7419 78.56C85.8352 78.9867 84.8219 79.2 83.7019 79.2C82.5819 79.2 81.5419 78.9867 80.5819 78.56C79.6752 78.1333 78.9285 77.5467 78.3419 76.8C77.8085 76 77.5419 75.04 77.5419 73.92C77.5419 72.7467 77.8085 71.76 78.3419 70.96C78.9285 70.16 79.6752 69.5467 80.5819 69.12C81.5419 68.6933 82.5819 68.48 83.7019 68.48Z" fill="white"/>
</g>
<defs>
<linearGradient id="paint0_linear_1072_2" x1="-1.09665e-06" y1="2" x2="98.5" y2="100" gradientUnits="userSpaceOnUse">
<stop stop-color="#B700FF"/>
<stop offset="1" stop-color="#9E9BFF"/>
</linearGradient>
<clipPath id="clip0_1072_2">
<rect width="100" height="100" rx="23" fill="white"/>
</clipPath>
</defs>
</svg>
